<svg width="15" height="15" viewBox="0 0 15 15" fill="none" xmlns="http://www.w3.org/2000/svg">
<path d="M1.16667 0.375H13.8333C14.0433 0.375 14.2447 0.458407 14.3931 0.606874C14.5416 0.75534 14.625 0.956704 14.625 1.16667V13.8333C14.625 14.0433 14.5416 14.2447 14.3931 14.3931C14.2447 14.5416 14.0433 14.625 13.8333 14.625H1.16667C0.956704 14.625 0.75534 14.5416 0.606874 14.3931C0.458407 14.2447 0.375 14.0433 0.375 13.8333V1.16667C0.375 0.956704 0.458407 0.75534 0.606874 0.606874C0.75534 0.458407 0.956704 0.375 1.16667 0.375ZM1.95833 1.95833V13.0417H13.0417V1.95833H1.95833ZM6.71071 10.6667L3.35167 7.30763L4.47108 6.18821L6.71071 8.42783L11.1884 3.94937L12.3086 5.06879L6.71071 10.6667Z" fill="#1074EB"/>
</svg>
